<svg xmlns="http://www.w3.org/2000/svg" width="60" height="40" viewBox="0 0 60 40">
  <rect width="60" height="40" fill="#B22234" />
  <rect y="3.08" width="60" height="3.08" fill="#FFFFFF" />
  <rect y="9.23" width="60" height="3.08" fill="#FFFFFF" />
  <rect y="15.38" width="60" height="3.08" fill="#FFFFFF" />
  <rect y="21.54" width="60" height="3.08" fill="#FFFFFF" />
  <rect y="27.69" width="60" height="3.08" fill="#FFFFFF" />
  <rect y="33.85" width="60" height="3.08" fill="#FFFFFF" />
  <rect width="26" height="18" fill="#3C3B6E" />
  <circle cx="4" cy="4" r="1" fill="#FFFFFF" />
  <circle cx="10" cy="4" r="1" fill="#FFFFFF" />
  <circle cx="16" cy="4" r="1" fill="#FFFFFF" />
  <circle cx="22" cy="4" r="1" fill="#FFFFFF" />
  <circle cx="4" cy="8" r="1" fill="#FFFFFF" />
  <circle cx="10" cy="8" r="1" fill="#FFFFFF" />
  <circle cx="16" cy="8" r="1" fill="#FFFFFF" />
  <circle cx="22" cy="8" r="1" fill="#FFFFFF" />
  <circle cx="4" cy="12" r="1" fill="#FFFFFF" />
  <circle cx="10" cy="12" r="1" fill="#FFFFFF" />
  <circle cx="16" cy="12" r="1" fill="#FFFFFF" />
  <circle cx="22" cy="12" r="1" fill="#FFFFFF" />
  <circle cx="4" cy="16" r="1" fill="#FFFFFF" />
  <circle cx="10" cy="16" r="1" fill="#FFFFFF" />
  <circle cx="16" cy="16" r="1" fill="#FFFFFF" />
  <circle cx="22" cy="16" r="1" fill="#FFFFFF" />
</svg>
